<svg xmlns="http://www.w3.org/2000/svg" viewBox="0 0 220 230" role="img" aria-labelledby="title desc">
  <title id="title">103rd Transportation Battalion coat of arms</title>
  <desc id="desc">Stylized portfolio rendition of the 103rd Transportation Battalion heraldry, based on the U.S. Army Institute of Heraldry record.</desc>
  <defs>
    <linearGradient id="gold" x1="0" y1="0" x2="0" y2="1">
      <stop offset="0" stop-color="#ffe372"/>
      <stop offset="1" stop-color="#d69d13"/>
    </linearGradient>
  </defs>
  <path d="M16 158c15-13 30-13 43-1 27 16 75 16 102 0 13-12 29-12 43 1l-8 20c-13-5-24-3-33 7-29 14-77 14-106 0-9-10-20-12-33-7z" fill="url(#gold)" stroke="#9d7012" stroke-width="3"/>
  <path d="M45 16h130v120c0 20-15 31-30 36-24 9-46 9-70 0-15-5-30-16-30-36z" fill="#f8cd2f" stroke="#9d7012" stroke-width="4"/>
  <path d="M45 16h65v156c-13-2-25-5-35-10-15-7-30-19-30-36z" fill="#8a173d"/>
  <path d="M118 55a35 35 0 1 1 0 70 35 35 0 0 1 0-70z" fill="#f8cd2f" stroke="#8a173d" stroke-width="8"/>
  <path d="M72 45l83 95" fill="none" stroke="#8a173d" stroke-width="16" stroke-linecap="round"/>
  <path d="M62 55l29 8m-16-26l29 8m-17-25l29 8" fill="none" stroke="#f8cd2f" stroke-width="5" stroke-linecap="round"/>
  <path d="M153 35h13v24h-13zM150 39h19v6h-19zM156 31h7v5h-7z" fill="#07356b"/>
  <path d="M63 174c20 11 74 11 94 0l-3 30c-22 13-66 13-88 0z" fill="url(#gold)" stroke="#9d7012" stroke-width="3"/>
  <text x="109" y="190" text-anchor="middle" font-family="Arial, sans-serif" font-size="11" font-weight="700" fill="#07356b">FORTITER</text>
  <text x="109" y="202" text-anchor="middle" font-family="Arial, sans-serif" font-size="10" font-weight="700" fill="#07356b">PROGREDIENTES</text>
</svg>